# Blender 3.6.5
# www.blender.org
o Cube
v -7.000000 -1.000000 1.000000
v -7.000000 1.000000 1.000000
v -7.000000 -1.000000 -3.000000
v -7.000000 1.000000 -3.000000
v -0.000000 -1.000000 1.000000
v -10.000000 1.000000 1.000000
v -0.000000 -1.000000 -3.000000
v -10.000000 -1.000000 1.000000
v -10.000000 -1.000000 -3.000000
v -10.000000 1.000000 -3.000000
vn -0.0000 1.0000 -0.0000
vn 0.2747 0.9615 -0.0000
vn -0.0000 -0.0000 -1.0000
vn -0.0000 -0.0000 1.0000
vn -0.0000 -1.0000 -0.0000
vn -1.0000 -0.0000 -0.0000
vt 0.625000 0.250000
vt 0.625000 0.000000
vt 0.375000 0.500000
vt 0.125000 0.500000
vt 0.125000 0.750000
vt 0.375000 0.750000
vt 0.375000 0.250000
vt 0.375000 0.000000
s 0
f 4/1/1 6/2/1 2/2/1
f 2/2/2 7/3/2 4/1/2
f 3/4/3 4/1/3 7/3/3
f 2/2/4 1/5/4 5/6/4
f 7/3/5 1/5/5 3/4/5
f 6/2/6 9/7/6 8/8/6
f 1/5/5 9/4/5 3/4/5
f 3/4/3 10/1/3 4/1/3
f 2/2/4 8/5/4 1/5/4
f 4/1/1 10/1/1 6/2/1
f 2/2/2 5/6/2 7/3/2
f 7/3/5 5/6/5 1/5/5
f 6/2/6 10/1/6 9/7/6
f 1/5/5 8/5/5 9/4/5
f 3/4/3 9/4/3 10/1/3
f 2/2/4 6/2/4 8/5/4
