# Blender 3.3.1
# www.blender.org
o Cube.001
v -100.000000 -5.000000 100.000000
v -100.000000 -3.000000 100.000000
v -100.000000 -5.000000 -100.000000
v -100.000000 -3.000000 -100.000000
v 100.000000 -5.000000 100.000000
v 100.000000 -3.000000 100.000000
v 100.000000 -5.000000 -100.000000
v 100.000000 -3.000000 -100.000000
vn -1.0000 -0.0000 -0.0000
vn -0.0000 -0.0000 -1.0000
vn 1.0000 -0.0000 -0.0000
vn -0.0000 -0.0000 1.0000
vn -0.0000 -1.0000 -0.0000
vn -0.0000 1.0000 -0.0000
vt 0.375000 0.000000
vt 0.375000 1.000000
vt 0.125000 0.750000
vt 0.625000 0.000000
vt 0.625000 1.000000
vt 0.875000 0.750000
vt 0.125000 0.500000
vt 0.375000 0.250000
vt 0.625000 0.250000
vt 0.875000 0.500000
vt 0.375000 0.750000
vt 0.625000 0.750000
vt 0.375000 0.500000
vt 0.625000 0.500000
s 0
f 2/4/1 3/8/1 1/1/1
f 4/9/2 7/13/2 3/8/2
f 8/14/3 5/11/3 7/13/3
f 6/12/4 1/2/4 5/11/4
f 7/13/5 1/3/5 3/7/5
f 4/10/6 6/12/6 8/14/6
f 2/4/1 4/9/1 3/8/1
f 4/9/2 8/14/2 7/13/2
f 8/14/3 6/12/3 5/11/3
f 6/12/4 2/5/4 1/2/4
f 7/13/5 5/11/5 1/3/5
f 4/10/6 2/6/6 6/12/6
o Cube
v -10.000000 -3.000000 10.000000
v -10.000000 -2.000000 10.000000
v -10.000000 -2.000000 -10.000000
v 10.000000 -2.000000 10.000000
v 10.000000 -3.000000 -10.000000
v 10.000000 -2.000000 -10.000000
v -11.000000 -3.000000 10.000000
v -11.000000 -3.000000 -10.000000
v -11.000000 3.000000 10.000000
v -11.000000 3.000000 -10.000000
v -10.000000 -3.000000 11.000000
v 10.000000 -3.000000 11.000000
v -10.000000 3.000000 10.000000
v 10.000000 3.000000 10.000000
v -10.000000 3.000000 11.000000
v 10.000000 3.000000 11.000000
v -3.333333 -3.000000 11.000000
v 3.333333 -3.000000 11.000000
v 3.333333 3.000000 11.000000
v -3.333333 3.000000 11.000000
v -3.333333 -3.000000 18.000000
v 3.333333 -3.000000 18.000000
v 3.333333 -1.000000 18.000000
v -3.333333 -1.000000 18.000000
v -10.000000 4.000000 10.000000
v -10.000000 4.000000 -10.000000
v -11.000000 4.000000 -10.000000
v -20.000000 3.000000 10.000000
v -20.000000 4.000000 10.000000
v -11.000000 3.000000 -13.000000
v -11.000000 4.000000 -13.000000
v -20.000000 3.000000 -13.000000
v -20.000000 4.000000 -13.000000
v 10.000000 9.000000 -10.000000
v 10.000000 10.000000 -10.000000
v 10.000000 9.000000 -13.000000
v 10.000000 10.000000 -13.000000
v 14.000000 9.000000 -10.000000
v 14.000000 10.000000 -10.000000
v 14.000000 9.000000 -13.000000
v 14.000000 10.000000 -13.000000
v 10.000000 14.000000 10.000000
v 10.000000 15.000000 10.000000
v 14.000000 14.000000 10.000000
v 14.000000 15.000000 10.000000
v 14.000000 14.000000 20.000000
v 14.000000 15.000000 20.000000
v -20.000000 14.000000 10.000000
v -20.000000 15.000000 10.000000
v 10.000000 14.000000 -10.000000
v 10.000000 15.000000 -10.000000
v -20.000000 14.000000 -10.000000
v -20.000000 15.000000 -10.000000
v -24.000000 14.000000 10.000000
v -24.000000 15.000000 10.000000
v -24.000000 14.000000 20.000000
v -24.000000 15.000000 20.000000
v -20.000000 20.000000 -10.000000
v -20.000000 21.000000 -10.000000
v -24.000000 20.000000 -10.000000
v -24.000000 21.000000 -10.000000
v -20.000000 20.000000 -13.000000
v -20.000000 21.000000 -13.000000
v -24.000000 20.000000 -13.000000
v -24.000000 21.000000 -13.000000
vn -1.0000 -0.0000 -0.0000
vn -0.0000 -1.0000 -0.0000
vn -0.0000 -0.0000 1.0000
vn -0.0000 -0.0000 -1.0000
vn 1.0000 -0.0000 -0.0000
vn -0.0000 0.8682 0.4961
vn -0.0000 1.0000 -0.0000
vn 0.2747 -0.9615 -0.0000
vn -0.2747 0.9615 -0.0000
vn -0.0000 -0.9701 0.2425
vn -0.0000 0.9701 -0.2425
vn -0.0000 -0.9578 -0.2873
vn -0.0000 0.9578 0.2873
vt 0.125000 0.750000
vt 0.375000 1.000000
vt 0.875000 0.750000
vt 0.625000 1.000000
vt 0.875000 0.500000
vt 0.625000 0.250000
vt 0.625000 0.750000
vt 0.375000 0.500000
vt 0.625000 0.500000
vt 0.375000 0.000000
vt 0.125000 0.750000
vt 0.375000 1.000000
vt 0.125000 0.500000
vt 0.375000 0.250000
vt 0.625000 1.000000
vt 0.625000 0.000000
vt 0.625000 0.250000
vt 0.125000 0.750000
vt 0.375000 1.000000
vt 0.375000 0.750000
vt 0.625000 1.000000
vt 0.875000 0.750000
vt 0.625000 0.750000
vt 0.625000 1.000000
vt 0.875000 0.750000
vt 0.625000 0.750000
vt 0.208333 0.750000
vt 0.375000 0.916667
vt 0.291667 0.750000
vt 0.375000 0.833333
vt 0.708333 0.750000
vt 0.625000 0.833333
vt 0.625000 0.916667
vt 0.791667 0.750000
vt 0.208333 0.750000
vt 0.375000 0.916667
vt 0.375000 0.833333
vt 0.291667 0.750000
vt 0.708333 0.750000
vt 0.625000 0.833333
vt 0.791667 0.750000
vt 0.625000 0.916667
vt 0.625000 1.000000
vt 0.875000 0.750000
vt 0.625000 0.250000
vt 0.875000 0.500000
vt 0.625000 0.250000
vt 0.875000 0.500000
vt 0.625000 1.000000
vt 0.625000 0.000000
vt 0.625000 1.000000
vt 0.875000 0.750000
vt 0.625000 0.250000
vt 0.875000 0.500000
vt 0.625000 0.250000
vt 0.625000 0.250000
vt 0.875000 0.500000
vt 0.625000 0.250000
vt 0.625000 0.250000
vt 0.875000 0.500000
vt 0.625000 0.250000
vt 0.875000 0.500000
vt 0.625000 0.250000
vt 0.625000 0.250000
vt 0.875000 0.500000
vt 0.625000 0.250000
vt 0.625000 0.250000
vt 0.875000 0.500000
vt 0.625000 0.250000
vt 0.625000 0.250000
vt 0.875000 0.500000
vt 0.625000 0.250000
vt 0.625000 0.250000
vt 0.875000 0.500000
vt 0.625000 0.250000
vt 0.875000 0.500000
vt 0.625000 0.250000
vt 0.625000 0.250000
vt 0.625000 0.250000
vt 0.875000 0.500000
vt 0.625000 0.250000
vt 0.875000 0.500000
vt 0.625000 0.250000
vt 0.625000 0.250000
vt 0.875000 0.500000
vt 0.625000 0.250000
vt 0.625000 0.250000
vt 0.875000 0.500000
vt 0.625000 0.250000
vt 0.625000 0.250000
vt 0.875000 0.500000
vt 0.625000 0.250000
vt 0.625000 0.250000
vt 0.625000 0.250000
vt 0.875000 0.500000
vt 0.625000 0.250000
vt 0.625000 0.250000
vt 0.875000 0.500000
vt 0.625000 0.250000
vt 0.625000 0.250000
vt 0.875000 0.500000
vt 0.625000 0.250000
vt 0.625000 0.250000
vt 0.875000 0.500000
s 0
f 23/38/7 21/35/7 10/18/7
f 9/15/8 16/27/8 25/41/8
f 28/47/9 19/33/9 25/42/9
f 31/54/9 29/50/9 30/51/9
f 10/17/10 22/37/10 12/21/10
f 24/40/9 26/44/9 20/34/9
f 34/60/11 10/17/11 11/19/11
f 17/30/7 16/28/7 15/24/7
f 28/48/12 31/53/12 27/45/12
f 20/34/11 12/21/11 24/40/11
f 11/19/13 12/21/13 14/23/13
f 21/36/13 28/48/13 27/45/13
f 26/44/11 31/54/11 30/51/11
f 25/42/7 32/56/7 28/47/7
f 57/94/13 65/105/13 51/85/13
f 68/110/7 62/101/7 63/103/7
f 17/29/9 15/26/9 10/18/9
f 35/61/9 42/72/9 43/73/9
f 41/70/7 36/63/7 37/66/7
f 44/75/8 46/77/8 42/72/8
f 38/67/14 42/72/14 18/31/14
f 35/62/15 45/76/15 39/68/15
f 39/68/10 44/75/10 38/67/10
f 47/78/11 53/87/11 52/86/11
f 43/74/13 49/82/13 45/76/13
f 57/93/11 56/92/11 66/107/11
f 64/104/8 56/92/8 50/83/8
f 46/77/16 50/83/16 42/72/16
f 43/73/7 50/83/7 51/84/7
f 43/74/17 53/88/17 47/79/17
f 16/28/10 11/20/10 13/22/10
f 40/69/8 38/67/8 18/31/8
f 58/95/10 61/100/10 59/97/10
f 50/83/11 59/97/11 51/84/11
f 57/93/7 60/98/7 56/92/7
f 35/62/13 39/68/13 41/71/13
f 65/106/9 54/89/9 55/91/9
f 68/110/8 70/113/8 66/107/8
f 62/101/18 66/107/18 56/92/18
f 57/94/19 69/112/19 63/102/19
f 70/113/10 73/117/10 71/114/10
f 67/109/13 73/118/13 69/112/13
f 9/16/7 19/33/7 10/18/7
f 19/33/7 23/38/7 10/18/7
f 16/27/8 13/22/8 25/41/8
f 13/22/8 20/34/8 26/43/8
f 26/43/8 30/52/8 29/49/8
f 13/22/8 26/43/8 25/41/8
f 9/15/8 15/25/8 16/27/8
f 25/41/8 19/32/8 9/15/8
f 26/43/8 29/49/8 25/41/8
f 28/47/9 23/38/9 19/33/9
f 31/54/9 32/56/9 29/50/9
f 10/17/10 21/36/10 22/37/10
f 24/40/9 27/46/9 26/44/9
f 34/60/11 33/58/11 10/17/11
f 17/30/7 18/31/7 16/28/7
f 28/48/12 32/55/12 31/53/12
f 20/34/11 13/22/11 12/21/11
f 13/22/11 14/23/11 12/21/11
f 12/21/11 22/37/11 24/40/11
f 11/19/13 10/17/13 12/21/13
f 24/40/13 22/37/13 27/45/13
f 22/37/13 21/36/13 27/45/13
f 21/36/13 23/39/13 28/48/13
f 26/44/11 27/46/11 31/54/11
f 25/42/7 29/50/7 32/56/7
f 57/94/13 63/102/13 65/105/13
f 65/105/13 55/90/13 51/85/13
f 55/90/13 53/88/13 51/85/13
f 51/85/13 59/96/13 61/99/13
f 51/85/13 61/99/13 57/94/13
f 63/103/7 69/111/7 68/110/7
f 69/111/7 73/117/7 68/110/7
f 73/117/7 72/116/7 68/110/7
f 62/101/7 64/104/7 65/106/7
f 62/101/7 65/106/7 63/103/7
f 9/16/9 10/18/9 15/26/9
f 10/18/9 33/57/9 17/29/9
f 33/57/9 37/65/9 17/29/9
f 37/65/9 36/63/9 17/29/9
f 35/61/9 18/31/9 42/72/9
f 41/70/7 40/69/7 36/63/7
f 44/75/8 48/80/8 46/77/8
f 38/67/14 44/75/14 42/72/14
f 35/62/15 43/74/15 45/76/15
f 39/68/10 45/76/10 44/75/10
f 45/76/10 49/82/10 44/75/10
f 49/82/10 48/80/10 44/75/10
f 38/67/10 40/69/10 41/71/10
f 38/67/10 41/71/10 39/68/10
f 53/87/11 55/91/11 54/89/11
f 52/86/11 46/77/11 47/78/11
f 46/77/11 48/80/11 47/78/11
f 53/87/11 54/89/11 52/86/11
f 48/80/11 49/81/11 47/78/11
f 43/74/13 47/79/13 49/82/13
f 66/107/11 70/113/11 71/115/11
f 71/115/11 67/108/11 66/107/11
f 67/108/11 57/93/11 66/107/11
f 52/86/8 54/89/8 50/83/8
f 54/89/8 64/104/8 50/83/8
f 64/104/8 62/101/8 56/92/8
f 56/92/8 60/98/8 58/95/8
f 56/92/8 58/95/8 50/83/8
f 46/77/16 52/86/16 50/83/16
f 43/73/7 42/72/7 50/83/7
f 43/74/17 51/85/17 53/88/17
f 16/28/10 18/31/10 11/20/10
f 18/31/10 35/61/10 34/59/10
f 11/20/10 18/31/10 34/59/10
f 11/20/10 14/23/10 13/22/10
f 17/30/8 36/64/8 18/31/8
f 36/64/8 40/69/8 18/31/8
f 58/95/10 60/98/10 61/100/10
f 50/83/11 58/95/11 59/97/11
f 57/93/7 61/100/7 60/98/7
f 41/71/13 37/66/13 35/62/13
f 37/66/13 33/58/13 35/62/13
f 33/58/13 34/60/13 35/62/13
f 65/106/9 64/104/9 54/89/9
f 68/110/8 72/116/8 70/113/8
f 62/101/18 68/110/18 66/107/18
f 57/94/19 67/109/19 69/112/19
f 70/113/10 72/116/10 73/117/10
f 67/109/13 71/115/13 73/118/13
