# Blender 3.3.1
# www.blender.org
o Cube.001
v -100.000000 -5.000000 100.000000
v -100.000000 -3.000000 100.000000
v -100.000000 -5.000000 -100.000000
v -100.000000 -3.000000 -100.000000
v 100.000000 -5.000000 100.000000
v 100.000000 -3.000000 100.000000
v 100.000000 -5.000000 -100.000000
v 100.000000 -3.000000 -100.000000
vn -1.0000 -0.0000 -0.0000
vn -0.0000 -0.0000 -1.0000
vn 1.0000 -0.0000 -0.0000
vn -0.0000 -0.0000 1.0000
vn -0.0000 -1.0000 -0.0000
vn -0.0000 1.0000 -0.0000
vt 0.375000 0.000000
vt 0.375000 1.000000
vt 0.125000 0.750000
vt 0.625000 0.000000
vt 0.625000 1.000000
vt 0.875000 0.750000
vt 0.125000 0.500000
vt 0.375000 0.250000
vt 0.625000 0.250000
vt 0.875000 0.500000
vt 0.375000 0.750000
vt 0.625000 0.750000
vt 0.375000 0.500000
vt 0.625000 0.500000
s 0
f 2/4/1 3/8/1 1/1/1
f 4/9/2 7/13/2 3/8/2
f 8/14/3 5/11/3 7/13/3
f 6/12/4 1/2/4 5/11/4
f 7/13/5 1/3/5 3/7/5
f 4/10/6 6/12/6 8/14/6
f 2/4/1 4/9/1 3/8/1
f 4/9/2 8/14/2 7/13/2
f 8/14/3 6/12/3 5/11/3
f 6/12/4 2/5/4 1/2/4
f 7/13/5 5/11/5 1/3/5
f 4/10/6 2/6/6 6/12/6
o Cube
v -10.000000 -3.000000 10.000000
v -10.000000 -2.000000 10.000000
v -10.000000 -3.000000 -10.000000
v -10.000000 -2.000000 -10.000000
v 10.000000 -3.000000 10.000000
v 10.000000 -2.000000 10.000000
v 10.000000 -3.000000 -10.000000
v 10.000000 -2.000000 -10.000000
v 14.000000 -3.000000 10.000000
v 14.000000 -2.000000 10.000000
v 14.000000 -3.000000 -10.000000
v 14.000000 -2.000000 -10.000000
v 10.000000 -3.000000 14.000000
v 10.000000 -2.000000 14.000000
v 14.000000 -3.000000 14.000000
v 14.000000 -2.000000 14.000000
v -10.000000 6.000000 10.000000
v -10.000000 7.000000 10.000000
v -10.000000 6.000000 14.000000
v -10.000000 7.000000 14.000000
v -14.000000 6.000000 10.000000
v -14.000000 7.000000 10.000000
v -14.000000 6.000000 14.000000
v -14.000000 7.000000 14.000000
v -10.000000 6.000000 -10.000000
v -10.000000 7.000000 -10.000000
v -14.000000 6.000000 -10.000000
v -14.000000 7.000000 -10.000000
v 10.000000 6.000000 10.000000
v 10.000000 7.000000 10.000000
v 10.000000 6.000000 -10.000000
v 10.000000 7.000000 -10.000000
v 14.000000 6.000000 10.000000
v 14.000000 7.000000 10.000000
v 14.000000 6.000000 -10.000000
v 14.000000 7.000000 -10.000000
v 10.000000 6.000000 -14.000000
v 10.000000 7.000000 -14.000000
v 14.000000 6.000000 -14.000000
v 14.000000 7.000000 -14.000000
v -10.000000 15.000000 -10.000000
v -10.000000 16.000000 -10.000000
v -10.000000 15.000000 -14.000000
v -10.000000 16.000000 -14.000000
v -14.000000 15.000000 -10.000000
v -14.000000 16.000000 -10.000000
v -14.000000 15.000000 -14.000000
v -14.000000 16.000000 -14.000000
v -10.000000 15.000000 10.000000
v -10.000000 16.000000 10.000000
v -14.000000 15.000000 10.000000
v -14.000000 16.000000 10.000000
v 10.000000 15.000000 -10.000000
v 10.000000 16.000000 -10.000000
v 10.000000 15.000000 10.000000
v 10.000000 16.000000 10.000000
v 14.000000 15.000000 -10.000000
v 14.000000 16.000000 -10.000000
v 14.000000 15.000000 10.000000
v 14.000000 16.000000 10.000000
v 10.000000 15.000000 14.000000
v 10.000000 16.000000 14.000000
v 14.000000 15.000000 14.000000
v 14.000000 16.000000 14.000000
v -10.000000 25.000000 10.000000
v -10.000000 26.000000 10.000000
v -10.000000 25.000000 14.000000
v -10.000000 26.000000 14.000000
v -14.000000 25.000000 10.000000
v -14.000000 26.000000 10.000000
v -14.000000 25.000000 14.000000
v -14.000000 26.000000 14.000000
v -10.000000 25.000000 -10.000000
v -10.000000 26.000000 -10.000000
v -14.000000 25.000000 -10.000000
v -14.000000 26.000000 -10.000000
v 10.000000 25.000000 10.000000
v 10.000000 26.000000 10.000000
v 10.000000 25.000000 -10.000000
v 10.000000 26.000000 -10.000000
v 14.000000 25.000000 10.000000
v 14.000000 26.000000 10.000000
v 14.000000 25.000000 -10.000000
v 14.000000 26.000000 -10.000000
v 10.000000 25.000000 -14.000000
v 10.000000 26.000000 -14.000000
v 14.000000 25.000000 -14.000000
v 14.000000 26.000000 -14.000000
v -10.000000 32.000000 -10.000000
v -10.000000 33.000000 -10.000000
v -10.000000 32.000000 -14.000000
v -10.000000 33.000000 -14.000000
v -14.000000 32.000000 -10.000000
v -14.000000 33.000000 -10.000000
v -14.000000 32.000000 -14.000000
v -14.000000 33.000000 -14.000000
v -10.000000 32.000000 10.000000
v -10.000000 33.000000 10.000000
v -14.000000 32.000000 10.000000
v -14.000000 33.000000 10.000000
v 10.000000 32.000000 -10.000000
v 10.000000 33.000000 -10.000000
v 10.000000 32.000000 10.000000
v 10.000000 33.000000 10.000000
v 14.000000 32.000000 -10.000000
v 14.000000 33.000000 -10.000000
v 14.000000 32.000000 10.000000
v 14.000000 33.000000 10.000000
v 10.000000 32.000000 14.000000
v 10.000000 33.000000 14.000000
v 14.000000 32.000000 14.000000
v 14.000000 33.000000 14.000000
v -10.000000 39.000000 10.000000
v -10.000000 40.000000 10.000000
v -10.000000 39.000000 14.000000
v -10.000000 40.000000 14.000000
v -14.000000 39.000000 10.000000
v -14.000000 40.000000 10.000000
v -14.000000 39.000000 14.000000
v -14.000000 40.000000 14.000000
v -10.000000 39.000000 -14.000000
v -10.000000 40.000000 -14.000000
v -14.000000 39.000000 -14.000000
v -14.000000 40.000000 -14.000000
v 14.000000 39.000000 10.000000
v 14.000000 40.000000 10.000000
v 14.000000 39.000000 -14.000000
v 14.000000 40.000000 -14.000000
v 15.000000 39.000000 1.000000
v 15.000000 40.000000 1.000000
v 15.000000 39.000000 -5.000000
v 15.000000 40.000000 -5.000000
v 30.000000 39.000000 1.000000
v 30.000000 40.000000 1.000000
v 30.000000 39.000000 -5.000000
v 30.000000 40.000000 -5.000000
v 31.000000 39.000000 10.000000
v 31.000000 40.000000 10.000000
v 31.000000 39.000000 -14.000000
v 31.000000 40.000000 -14.000000
v 57.000000 39.000000 10.000000
v 57.000000 40.000000 10.000000
v 57.000000 39.000000 -14.000000
v 57.000000 40.000000 -14.000000
v 41.000000 39.000000 11.000000
v 41.000000 40.000000 11.000000
v 47.000000 39.000000 11.000000
v 47.000000 40.000000 11.000000
v 41.000000 45.000000 25.000000
v 41.000000 46.000000 25.000000
v 47.000000 45.000000 25.000000
v 47.000000 46.000000 25.000000
v 31.000000 45.000000 26.000000
v 31.000000 46.000000 26.000000
v 57.000000 45.000000 26.000000
v 57.000000 46.000000 26.000000
v 31.000000 45.000000 49.000000
v 31.000000 46.000000 49.000000
v 57.000000 45.000000 49.000000
v 57.000000 46.000000 49.000000
v 58.000000 45.000000 26.000000
v 58.000000 46.000000 26.000000
v 58.000000 45.000000 49.000000
v 58.000000 46.000000 49.000000
v 30.000000 46.000000 26.000000
v 30.000000 45.000000 26.000000
v 30.000000 46.000000 49.000000
v 30.000000 45.000000 49.000000
v 31.000000 46.000000 50.000000
v 31.000000 45.000000 50.000000
v 57.000000 46.000000 50.000000
v 57.000000 45.000000 50.000000
v 31.000000 51.000000 49.000000
v 57.000000 51.000000 49.000000
v 57.000000 51.000000 26.000000
v 31.000000 51.000000 26.000000
v 58.000000 51.000000 26.000000
v 58.000000 51.000000 49.000000
v 30.000000 51.000000 26.000000
v 30.000000 51.000000 49.000000
v 31.000000 51.000000 50.000000
v 57.000000 51.000000 50.000000
vn -1.0000 -0.0000 -0.0000
vn -0.0000 -0.0000 -1.0000
vn -0.0000 1.0000 -0.0000
vn -0.0000 -0.0000 1.0000
vn -0.0000 -1.0000 -0.0000
vn 1.0000 -0.0000 -0.0000
vn -0.4104 -0.9119 -0.0000
vn 0.4104 0.9119 -0.0000
vn 0.4472 0.8944 -0.0000
vn -0.4472 -0.8944 -0.0000
vn -0.3304 -0.9439 -0.0000
vn 0.3304 0.9439 -0.0000
vn 0.9939 -0.0000 -0.1104
vn 0.9939 -0.0000 0.1104
vn -0.9939 -0.0000 0.1104
vn -0.9939 -0.0000 -0.1104
vn -0.0000 0.9191 -0.3939
vn 0.0995 -0.0000 0.9950
vn -0.0995 -0.0000 0.9950
vn -0.0000 -0.9191 0.3939
vn 0.0995 -0.0000 -0.9950
vn -0.0995 -0.0000 -0.9950
vt 0.375000 0.000000
vt 0.375000 1.000000
vt 0.125000 0.750000
vt 0.625000 0.000000
vt 0.625000 1.000000
vt 0.875000 0.750000
vt 0.125000 0.500000
vt 0.375000 0.250000
vt 0.625000 0.250000
vt 0.875000 0.500000
vt 0.375000 0.750000
vt 0.625000 0.750000
vt 0.375000 0.500000
vt 0.625000 0.500000
vt 0.375000 0.750000
vt 0.625000 0.750000
vt 0.375000 0.500000
vt 0.625000 0.500000
vt 0.375000 0.750000
vt 0.625000 0.750000
vt 0.375000 0.750000
vt 0.625000 0.750000
vt 0.375000 0.750000
vt 0.625000 0.750000
vt 0.375000 0.750000
vt 0.625000 0.750000
vt 0.375000 0.750000
vt 0.625000 0.750000
vt 0.375000 0.750000
vt 0.625000 0.750000
vt 0.375000 0.750000
vt 0.625000 0.750000
vt 0.375000 0.750000
vt 0.625000 0.750000
vt 0.375000 0.750000
vt 0.625000 0.750000
vt 0.375000 0.750000
vt 0.625000 0.750000
vt 0.375000 0.750000
vt 0.625000 0.750000
vt 0.375000 0.750000
vt 0.625000 0.750000
vt 0.375000 0.750000
vt 0.625000 0.750000
vt 0.375000 0.750000
vt 0.625000 0.750000
vt 0.375000 0.750000
vt 0.625000 0.750000
vt 0.375000 0.750000
vt 0.625000 0.750000
vt 0.375000 0.750000
vt 0.625000 0.750000
vt 0.375000 0.750000
vt 0.625000 0.750000
vt 0.375000 0.750000
vt 0.625000 0.750000
vt 0.375000 0.750000
vt 0.625000 0.750000
vt 0.375000 0.750000
vt 0.625000 0.750000
vt 0.375000 0.750000
vt 0.625000 0.750000
vt 0.375000 0.750000
vt 0.625000 0.750000
vt 0.375000 0.750000
vt 0.625000 0.750000
vt 0.375000 0.750000
vt 0.625000 0.750000
vt 0.375000 0.750000
vt 0.625000 0.750000
vt 0.375000 0.750000
vt 0.625000 0.750000
vt 0.375000 0.750000
vt 0.625000 0.750000
vt 0.375000 0.750000
vt 0.625000 0.750000
vt 0.375000 0.750000
vt 0.625000 0.750000
vt 0.375000 0.750000
vt 0.625000 0.750000
vt 0.375000 0.750000
vt 0.625000 0.750000
vt 0.375000 0.750000
vt 0.625000 0.750000
vt 0.375000 0.750000
vt 0.625000 0.750000
vt 0.375000 0.750000
vt 0.625000 0.750000
vt 0.375000 0.750000
vt 0.625000 0.750000
vt 0.375000 0.750000
vt 0.625000 0.750000
vt 0.375000 0.750000
vt 0.625000 0.750000
vt 0.375000 0.750000
vt 0.625000 0.750000
vt 0.375000 0.750000
vt 0.625000 0.750000
vt 0.375000 0.750000
vt 0.625000 0.750000
vt 0.375000 0.750000
vt 0.625000 0.750000
vt 0.375000 0.750000
vt 0.625000 0.750000
vt 0.375000 0.750000
vt 0.625000 0.750000
vt 0.375000 0.750000
vt 0.625000 0.750000
vt 0.375000 0.750000
vt 0.625000 0.750000
vt 0.375000 0.750000
vt 0.625000 0.750000
vt 0.375000 0.750000
vt 0.625000 0.750000
vt 0.375000 0.750000
vt 0.625000 0.750000
vt 0.375000 0.750000
vt 0.625000 0.750000
vt 0.375000 0.750000
vt 0.625000 0.750000
vt 0.375000 0.750000
vt 0.625000 0.750000
vt 0.375000 0.750000
vt 0.625000 0.750000
vt 0.375000 0.750000
vt 0.625000 0.750000
vt 0.375000 0.750000
vt 0.625000 0.750000
vt 0.375000 0.750000
vt 0.625000 0.750000
vt 0.375000 0.750000
vt 0.625000 0.750000
vt 0.375000 0.750000
vt 0.625000 0.750000
vt 0.375000 0.750000
vt 0.625000 0.750000
vt 0.375000 0.750000
vt 0.625000 0.750000
vt 0.375000 0.750000
vt 0.625000 0.750000
vt 0.375000 0.750000
vt 0.625000 0.750000
vt 0.375000 0.750000
vt 0.625000 0.750000
vt 0.375000 0.750000
vt 0.625000 0.750000
vt 0.375000 0.750000
vt 0.625000 0.750000
vt 0.375000 0.750000
vt 0.625000 0.750000
vt 0.375000 0.750000
vt 0.625000 0.750000
vt 0.375000 0.750000
vt 0.625000 0.750000
vt 0.375000 0.750000
vt 0.625000 0.750000
vt 0.375000 0.750000
vt 0.625000 0.750000
vt 0.375000 0.750000
vt 0.625000 0.750000
vt 0.375000 0.750000
vt 0.625000 0.750000
vt 0.375000 0.750000
vt 0.625000 0.750000
vt 0.375000 0.750000
vt 0.625000 0.750000
vt 0.375000 0.750000
vt 0.625000 0.750000
vt 0.375000 0.750000
vt 0.625000 0.750000
vt 0.625000 0.750000
vt 0.375000 0.750000
vt 0.625000 0.750000
vt 0.375000 0.750000
vt 0.625000 0.750000
vt 0.375000 0.750000
vt 0.625000 0.750000
vt 0.375000 0.750000
vt 0.625000 0.750000
vt 0.625000 0.750000
vt 0.625000 0.750000
vt 0.625000 0.750000
vt 0.625000 0.750000
vt 0.625000 0.750000
vt 0.625000 0.750000
vt 0.625000 0.750000
vt 0.625000 0.750000
vt 0.625000 0.750000
s 0
f 10/18/7 11/22/7 9/15/7
f 12/23/8 15/27/8 11/22/8
f 14/26/9 20/32/9 16/28/9
f 14/26/10 9/16/10 13/25/10
f 15/27/11 9/17/11 11/21/11
f 12/24/9 14/26/9 16/28/9
f 20/32/12 17/29/12 19/31/12
f 16/28/8 19/31/8 15/27/8
f 17/29/11 21/33/11 13/25/11
f 15/27/11 17/29/11 13/25/11
f 21/33/10 24/36/10 22/34/10
f 18/30/12 23/35/12 17/29/12
f 21/33/13 25/37/13 13/25/13
f 14/26/9 24/36/9 18/30/9
f 27/39/11 29/41/11 25/37/11
f 14/26/8 25/37/8 26/38/8
f 22/34/10 27/39/10 21/33/10
f 14/26/14 28/40/14 22/34/14
f 29/41/7 32/44/7 30/42/7
f 30/42/7 35/47/7 29/41/7
f 26/38/9 32/44/9 28/40/9
f 28/40/10 31/43/10 27/39/10
f 33/45/8 36/48/8 34/46/8
f 29/41/11 33/45/11 25/37/11
f 25/37/10 38/50/10 26/38/10
f 26/38/9 36/48/9 30/42/9
f 38/50/9 44/56/9 40/52/9
f 33/45/11 37/49/11 25/37/11
f 34/46/8 39/51/8 33/45/8
f 26/38/9 40/52/9 34/46/9
f 41/53/12 44/56/12 42/54/12
f 43/55/12 48/60/12 44/56/12
f 39/51/11 41/53/11 37/49/11
f 37/49/10 42/54/10 38/50/10
f 46/58/8 47/59/8 45/57/8
f 39/51/11 47/59/11 43/55/11
f 46/58/8 51/63/8 52/64/8
f 44/56/9 46/58/9 40/52/9
f 52/64/9 54/66/9 50/62/9
f 40/52/10 49/61/10 39/51/10
f 46/58/14 50/62/14 40/52/14
f 39/51/13 51/63/13 45/57/13
f 54/66/7 55/67/7 53/65/7
f 51/63/8 56/68/8 52/64/8
f 49/61/11 55/67/11 51/63/11
f 53/65/7 60/72/7 54/66/7
f 58/70/10 59/71/10 57/69/10
f 49/61/11 59/71/11 53/65/11
f 54/66/9 58/70/9 50/62/9
f 57/69/10 64/76/10 58/70/10
f 64/76/9 66/78/9 62/74/9
f 58/70/9 62/74/9 50/62/9
f 50/62/8 61/73/8 49/61/8
f 49/61/11 63/75/11 57/69/11
f 66/78/12 67/79/12 65/77/12
f 67/79/11 69/81/11 63/75/11
f 61/73/11 67/79/11 63/75/11
f 62/74/8 65/77/8 61/73/8
f 69/81/10 72/84/10 70/82/10
f 64/76/15 76/88/15 70/82/15
f 64/76/9 72/84/9 68/80/9
f 68/80/12 71/83/12 67/79/12
f 73/85/10 86/98/10 74/86/10
f 70/82/10 75/87/10 69/81/10
f 64/76/8 73/85/8 74/86/8
f 69/81/16 73/85/16 63/75/16
f 77/89/7 80/92/7 78/90/7
f 74/86/9 80/92/9 76/88/9
f 76/88/10 79/91/10 75/87/10
f 75/87/11 77/89/11 73/85/11
f 81/93/8 84/96/8 82/94/8
f 77/89/11 81/93/11 73/85/11
f 78/90/7 83/95/7 77/89/7
f 74/86/9 84/96/9 78/90/9
f 86/98/9 92/104/9 88/100/9
f 81/93/11 85/97/11 73/85/11
f 82/94/8 87/99/8 81/93/8
f 74/86/9 88/100/9 82/94/9
f 89/101/12 92/104/12 90/102/12
f 88/100/10 97/109/10 87/99/10
f 87/99/11 89/101/11 85/97/11
f 85/97/10 90/102/10 86/98/10
f 94/106/8 95/107/8 93/105/8
f 92/104/9 94/106/9 88/100/9
f 91/103/12 96/108/12 92/104/12
f 87/99/11 95/107/11 91/103/11
f 100/112/9 102/114/9 98/110/9
f 87/99/17 99/111/17 93/105/17
f 94/106/18 98/110/18 88/100/18
f 94/106/8 99/111/8 100/112/8
f 102/114/7 103/115/7 101/113/7
f 101/113/7 108/120/7 102/114/7
f 97/109/11 103/115/11 99/111/11
f 99/111/8 104/116/8 100/112/8
f 106/118/10 107/119/10 105/117/10
f 102/114/9 106/118/9 98/110/9
f 98/110/8 109/121/8 97/109/8
f 97/109/11 107/119/11 101/113/11
f 112/124/9 114/126/9 110/122/9
f 106/118/9 110/122/9 98/110/9
f 105/117/10 112/124/10 106/118/10
f 97/109/11 111/123/11 105/117/11
f 114/126/12 115/127/12 113/125/12
f 110/122/8 113/125/8 109/121/8
f 109/121/11 115/127/11 111/123/11
f 115/127/11 117/129/11 111/123/11
f 117/129/10 120/132/10 118/130/10
f 116/128/12 119/131/12 115/127/12
f 118/130/10 123/135/10 117/129/10
f 112/124/9 120/132/9 116/128/9
f 123/135/11 125/137/11 121/133/11
f 112/124/8 121/133/8 122/134/8
f 112/124/18 124/136/18 118/130/18
f 117/129/17 121/133/17 111/123/17
f 125/137/7 128/140/7 126/138/7
f 125/137/11 129/141/11 121/133/11
f 122/134/9 128/140/9 124/136/9
f 124/136/10 127/139/10 123/135/10
f 129/141/8 132/144/8 130/142/8
f 121/133/10 134/146/10 122/134/10
f 122/134/9 132/144/9 126/138/9
f 126/138/7 131/143/7 125/137/7
f 122/134/9 136/148/9 130/142/9
f 130/142/8 135/147/8 129/141/8
f 129/141/11 133/145/11 121/133/11
f 136/148/19 139/151/19 135/147/19
f 139/151/11 141/153/11 137/149/11
f 135/147/11 137/149/11 133/145/11
f 133/145/20 138/150/20 134/146/20
f 134/146/9 140/152/9 136/148/9
f 143/155/11 145/157/11 141/153/11
f 137/149/10 142/154/10 138/150/10
f 138/150/9 144/156/9 140/152/9
f 140/152/8 143/155/8 139/151/8
f 146/158/9 152/164/9 148/160/9
f 141/153/21 146/158/21 142/154/21
f 142/154/9 148/160/9 144/156/9
f 144/156/22 147/159/22 143/155/22
f 151/163/12 150/162/12 149/161/12
f 148/160/8 151/163/8 147/159/8
f 147/159/11 149/161/11 145/157/11
f 146/158/9 156/168/9 150/162/9
f 154/166/23 160/172/23 156/168/23
f 150/162/24 155/167/24 149/161/24
f 149/161/11 153/165/11 145/157/11
f 145/157/25 154/166/25 146/158/25
f 159/171/11 161/173/11 157/169/11
f 154/166/7 157/169/7 158/170/7
f 155/167/26 157/169/26 153/165/26
f 156/168/12 159/171/12 155/167/12
f 163/175/11 165/177/11 161/173/11
f 160/172/27 163/175/27 159/171/27
f 158/170/9 164/176/9 160/172/9
f 157/169/28 162/174/28 158/170/28
f 165/177/7 177/189/7 166/178/7
f 167/179/10 172/184/10 168/180/10
f 162/174/9 168/180/9 164/176/9
f 166/178/10 176/188/10 165/177/10
f 170/182/12 171/183/12 169/181/12
f 168/180/12 190/202/12 179/191/12
f 164/176/8 169/181/8 163/175/8
f 163/175/11 171/183/11 167/179/11
f 174/186/7 175/187/7 173/185/7
f 162/174/12 181/193/12 166/178/12
f 165/177/11 174/186/11 161/173/11
f 161/173/8 173/185/8 162/174/8
f 178/190/10 179/191/10 177/189/10
f 167/179/11 178/190/11 165/177/11
f 168/180/12 180/192/12 167/179/12
f 166/178/10 188/200/10 175/187/10
f 182/194/9 185/197/9 183/195/9
f 184/196/9 188/200/9 181/193/9
f 181/193/9 190/202/9 182/194/9
f 164/176/8 185/197/8 170/182/8
f 170/182/12 186/198/12 172/184/12
f 173/185/8 184/196/8 162/174/8
f 177/189/7 181/193/7 166/178/7
f 166/178/8 182/194/8 168/180/8
f 175/187/7 187/199/7 173/185/7
f 179/191/10 189/201/10 177/189/10
f 168/180/7 183/195/7 164/176/7
f 172/184/10 182/194/10 168/180/10
f 10/18/7 12/23/7 11/22/7
f 12/23/8 16/28/8 15/27/8
f 14/26/9 18/30/9 20/32/9
f 14/26/10 10/19/10 9/16/10
f 15/27/11 13/25/11 9/17/11
f 12/24/9 10/20/9 14/26/9
f 20/32/12 18/30/12 17/29/12
f 16/28/8 20/32/8 19/31/8
f 17/29/11 23/35/11 21/33/11
f 15/27/11 19/31/11 17/29/11
f 21/33/10 23/35/10 24/36/10
f 18/30/12 24/36/12 23/35/12
f 21/33/13 27/39/13 25/37/13
f 14/26/9 22/34/9 24/36/9
f 27/39/11 31/43/11 29/41/11
f 14/26/8 13/25/8 25/37/8
f 22/34/10 28/40/10 27/39/10
f 14/26/14 26/38/14 28/40/14
f 29/41/7 31/43/7 32/44/7
f 30/42/7 36/48/7 35/47/7
f 26/38/9 30/42/9 32/44/9
f 28/40/10 32/44/10 31/43/10
f 33/45/8 35/47/8 36/48/8
f 29/41/11 35/47/11 33/45/11
f 25/37/10 37/49/10 38/50/10
f 26/38/9 34/46/9 36/48/9
f 38/50/9 42/54/9 44/56/9
f 33/45/11 39/51/11 37/49/11
f 34/46/8 40/52/8 39/51/8
f 26/38/9 38/50/9 40/52/9
f 41/53/12 43/55/12 44/56/12
f 43/55/12 47/59/12 48/60/12
f 39/51/11 43/55/11 41/53/11
f 37/49/10 41/53/10 42/54/10
f 46/58/8 48/60/8 47/59/8
f 39/51/11 45/57/11 47/59/11
f 46/58/8 45/57/8 51/63/8
f 44/56/9 48/60/9 46/58/9
f 52/64/9 56/68/9 54/66/9
f 40/52/10 50/62/10 49/61/10
f 46/58/14 52/64/14 50/62/14
f 39/51/13 49/61/13 51/63/13
f 54/66/7 56/68/7 55/67/7
f 51/63/8 55/67/8 56/68/8
f 49/61/11 53/65/11 55/67/11
f 53/65/7 59/71/7 60/72/7
f 58/70/10 60/72/10 59/71/10
f 49/61/11 57/69/11 59/71/11
f 54/66/9 60/72/9 58/70/9
f 57/69/10 63/75/10 64/76/10
f 64/76/9 68/80/9 66/78/9
f 58/70/9 64/76/9 62/74/9
f 50/62/8 62/74/8 61/73/8
f 49/61/11 61/73/11 63/75/11
f 66/78/12 68/80/12 67/79/12
f 67/79/11 71/83/11 69/81/11
f 61/73/11 65/77/11 67/79/11
f 62/74/8 66/78/8 65/77/8
f 69/81/10 71/83/10 72/84/10
f 64/76/15 74/86/15 76/88/15
f 64/76/9 70/82/9 72/84/9
f 68/80/12 72/84/12 71/83/12
f 73/85/10 85/97/10 86/98/10
f 70/82/10 76/88/10 75/87/10
f 64/76/8 63/75/8 73/85/8
f 69/81/16 75/87/16 73/85/16
f 77/89/7 79/91/7 80/92/7
f 74/86/9 78/90/9 80/92/9
f 76/88/10 80/92/10 79/91/10
f 75/87/11 79/91/11 77/89/11
f 81/93/8 83/95/8 84/96/8
f 77/89/11 83/95/11 81/93/11
f 78/90/7 84/96/7 83/95/7
f 74/86/9 82/94/9 84/96/9
f 86/98/9 90/102/9 92/104/9
f 81/93/11 87/99/11 85/97/11
f 82/94/8 88/100/8 87/99/8
f 74/86/9 86/98/9 88/100/9
f 89/101/12 91/103/12 92/104/12
f 88/100/10 98/110/10 97/109/10
f 87/99/11 91/103/11 89/101/11
f 85/97/10 89/101/10 90/102/10
f 94/106/8 96/108/8 95/107/8
f 92/104/9 96/108/9 94/106/9
f 91/103/12 95/107/12 96/108/12
f 87/99/11 93/105/11 95/107/11
f 100/112/9 104/116/9 102/114/9
f 87/99/17 97/109/17 99/111/17
f 94/106/18 100/112/18 98/110/18
f 94/106/8 93/105/8 99/111/8
f 102/114/7 104/116/7 103/115/7
f 101/113/7 107/119/7 108/120/7
f 97/109/11 101/113/11 103/115/11
f 99/111/8 103/115/8 104/116/8
f 106/118/10 108/120/10 107/119/10
f 102/114/9 108/120/9 106/118/9
f 98/110/8 110/122/8 109/121/8
f 97/109/11 105/117/11 107/119/11
f 112/124/9 116/128/9 114/126/9
f 106/118/9 112/124/9 110/122/9
f 105/117/10 111/123/10 112/124/10
f 97/109/11 109/121/11 111/123/11
f 114/126/12 116/128/12 115/127/12
f 110/122/8 114/126/8 113/125/8
f 109/121/11 113/125/11 115/127/11
f 115/127/11 119/131/11 117/129/11
f 117/129/10 119/131/10 120/132/10
f 116/128/12 120/132/12 119/131/12
f 118/130/10 124/136/10 123/135/10
f 112/124/9 118/130/9 120/132/9
f 123/135/11 127/139/11 125/137/11
f 112/124/8 111/123/8 121/133/8
f 112/124/18 122/134/18 124/136/18
f 117/129/17 123/135/17 121/133/17
f 125/137/7 127/139/7 128/140/7
f 125/137/11 131/143/11 129/141/11
f 122/134/9 126/138/9 128/140/9
f 124/136/10 128/140/10 127/139/10
f 129/141/8 131/143/8 132/144/8
f 121/133/10 133/145/10 134/146/10
f 122/134/9 130/142/9 132/144/9
f 126/138/7 132/144/7 131/143/7
f 122/134/9 134/146/9 136/148/9
f 130/142/8 136/148/8 135/147/8
f 129/141/11 135/147/11 133/145/11
f 136/148/19 140/152/19 139/151/19
f 139/151/11 143/155/11 141/153/11
f 135/147/11 139/151/11 137/149/11
f 133/145/20 137/149/20 138/150/20
f 134/146/9 138/150/9 140/152/9
f 143/155/11 147/159/11 145/157/11
f 137/149/10 141/153/10 142/154/10
f 138/150/9 142/154/9 144/156/9
f 140/152/8 144/156/8 143/155/8
f 146/158/9 150/162/9 152/164/9
f 141/153/21 145/157/21 146/158/21
f 142/154/9 146/158/9 148/160/9
f 144/156/22 148/160/22 147/159/22
f 151/163/12 152/164/12 150/162/12
f 148/160/8 152/164/8 151/163/8
f 147/159/11 151/163/11 149/161/11
f 146/158/9 154/166/9 156/168/9
f 154/166/23 158/170/23 160/172/23
f 150/162/24 156/168/24 155/167/24
f 149/161/11 155/167/11 153/165/11
f 145/157/25 153/165/25 154/166/25
f 159/171/11 163/175/11 161/173/11
f 154/166/7 153/165/7 157/169/7
f 155/167/26 159/171/26 157/169/26
f 156/168/12 160/172/12 159/171/12
f 163/175/11 167/179/11 165/177/11
f 160/172/27 164/176/27 163/175/27
f 158/170/9 162/174/9 164/176/9
f 157/169/28 161/173/28 162/174/28
f 165/177/7 178/190/7 177/189/7
f 167/179/10 171/183/10 172/184/10
f 162/174/9 166/178/9 168/180/9
f 166/178/10 175/187/10 176/188/10
f 170/182/12 172/184/12 171/183/12
f 168/180/12 182/194/12 190/202/12
f 164/176/8 170/182/8 169/181/8
f 163/175/11 169/181/11 171/183/11
f 174/186/7 176/188/7 175/187/7
f 162/174/12 184/196/12 181/193/12
f 165/177/11 176/188/11 174/186/11
f 161/173/8 174/186/8 173/185/8
f 178/190/10 180/192/10 179/191/10
f 167/179/11 180/192/11 178/190/11
f 168/180/12 179/191/12 180/192/12
f 166/178/10 181/193/10 188/200/10
f 182/194/9 186/198/9 185/197/9
f 184/196/9 187/199/9 188/200/9
f 181/193/9 189/201/9 190/202/9
f 164/176/8 183/195/8 185/197/8
f 170/182/12 185/197/12 186/198/12
f 173/185/8 187/199/8 184/196/8
f 177/189/7 189/201/7 181/193/7
f 166/178/8 181/193/8 182/194/8
f 175/187/7 188/200/7 187/199/7
f 179/191/10 190/202/10 189/201/10
f 168/180/7 182/194/7 183/195/7
f 172/184/10 186/198/10 182/194/10
